<?xml version="1.0" encoding="utf-8"?>
<!-- Generator: Adobe Illustrator 18.0.0, SVG Export Plug-In . SVG Version: 6.00 Build 0)  -->
<!DOCTYPE svg PUBLIC "-//W3C//DTD SVG 1.1//EN" "http://www.w3.org/Graphics/SVG/1.1/DTD/svg11.dtd">
<svg version="1.1" id="Capa_1" xmlns="http://www.w3.org/2000/svg" xmlns:xlink="http://www.w3.org/1999/xlink" x="0px" y="0px"
	 width="512px" height="512px" viewBox="0 0 512 512" enable-background="new 0 0 512 512" xml:space="preserve">
<path fill="#1D1D1B" d="M278.4,295.1c-13,0-25.5-2.6-38.8-11.3c-4.4-2.9-7-4.3-10.7-4.3c-6.4,0-13,6.4-20.3,15.6H208v-64.9h0.9
	l3.5,10.7c7.5,22.9,25.8,53,65.8,53c25.8,0,45.2-11.6,45.2-38.2c0-58.8-107.2-46.9-107.2-112.1c0-30.7,25.5-51.3,57.1-51.3
	c12.2,0,22.9,3.2,33,9.8c3.8,2.6,6.7,4.1,9.6,4.1c4.9,0,11-5.8,17.7-13.9h0.6v56.2h-0.9l-3.2-10.1c-8.7-29.3-31.9-44.9-55.9-44.9
	c-24,0-37.7,12.5-37.7,31.9c0,60,108.6,48.1,108.6,116.5C345,273.7,316.7,295.1,278.4,295.1"/>
<path fill="#C3002F" d="M190.9,276.5c0,9.7-7.8,17.5-17.5,17.5s-17.5-7.8-17.5-17.5s7.8-17.5,17.5-17.5S190.9,266.8,190.9,276.5"/>
<path fill="#C3002F" d="M24.8,407.5c0,6.7-5.5,12.2-12.2,12.2c-6.7,0-12.2-5.4-12.2-12.2c0-6.7,5.5-12.2,12.2-12.2
	C19.3,395.3,24.8,400.8,24.8,407.5"/>
<polygon fill="#1D1D1B" points="104.4,415.7 116.7,415.7 116.7,335.8 104.4,335.8 104.4,334.2 140.1,334.2 140.1,335.8 127.8,335.8 
	127.8,415.7 140.1,415.7 140.1,417.3 104.4,417.3 "/>
<path fill="#1D1D1B" d="M147.1,415.7h12.3v-79.8h-12.3v-1.6h35.7v1.6h-12.3v79.8h19.7c6.5,0,11.6-2.1,15.3-6.4
	c3.7-4.3,6.4-10.1,8.1-17.5h1.2v25.6h-67.7V415.7z"/>
<path fill="#1D1D1B" d="M222,334.2h35.7v1.6h-12.3v56.4c0,4.7,0.4,8.6,1.2,11.8c0.8,3.2,1.9,5.8,3.5,7.8c1.6,2,3.5,3.4,5.8,4.3
	c2.3,0.9,4.9,1.3,7.9,1.3c4.1,0,7.8-0.6,11-1.9c3.2-1.3,5.9-3.6,8.2-6.8c0.7-1,1.4-2,1.9-3c0.6-1,1-2.2,1.4-3.6
	c0.4-1.4,0.7-3,0.9-4.9c0.2-1.9,0.3-4.3,0.3-7.1v-54.3h-12.3v-1.6h26.3v1.6h-12.3v56.6c0,3.3-0.3,6.2-1,8.9c-0.7,2.7-2,5.5-4.1,8.3
	c-2,2.8-4.8,5.1-8.3,6.8c-3.5,1.7-8.2,2.6-14.1,2.6c-8.9,0-15.6-2.3-20.3-6.9c-4.7-4.6-7-11.6-7-21.1v-55.2H222V334.2z"/>
<polygon fill="#1D1D1B" points="302.5,334.2 336.8,334.2 336.8,335.8 324.5,335.8 349.1,403.5 373.4,335.8 361.3,335.8 361.3,334.2 
	385.2,334.2 385.2,335.8 375.2,335.8 345.4,419 342.6,419 312.5,335.8 302.5,335.8 "/>
<polygon fill="#1D1D1B" points="387.5,415.7 399.8,415.7 399.8,335.8 387.5,335.8 387.5,334.2 423.2,334.2 423.2,335.8 410.9,335.8 
	410.9,415.7 423.2,415.7 423.2,417.3 387.5,417.3 "/>
<path fill="#1D1D1B" d="M434.4,375.6c0-6.2,1.2-12,3.5-17.3c2.3-5.3,5.3-9.9,9-13.8c3.7-3.9,7.8-6.9,12.4-9.2
	c4.6-2.2,9.2-3.3,13.7-3.3c4.9,0,9.6,1.1,14.2,3.3c4.6,2.2,8.7,5.3,12.4,9.2s6.5,8.5,8.7,13.8c2.2,5.3,3.3,11,3.3,17.3
	c0,5.4-1,10.8-3,16c-2,5.2-4.7,9.8-8.2,13.9c-3.5,4-7.6,7.3-12.3,9.8c-4.7,2.5-9.7,3.7-15.1,3.7c-5.5,0-10.7-1.2-15.4-3.6
	c-4.7-2.4-8.8-5.6-12.2-9.6c-3.4-4-6.1-8.6-8-13.9C435.4,386.7,434.4,381.2,434.4,375.6 M447.2,375.6c0,7,0.4,13.1,1.3,18.3
	c0.9,5.2,2.4,9.6,4.4,13.1c2.1,3.5,4.7,6.1,8,7.8c3.3,1.7,7.3,2.6,12.1,2.6c4.7,0,8.7-0.9,12-2.6c3.3-1.7,6-4.3,8-7.8
	c2.1-3.5,3.5-7.9,4.4-13.1c0.9-5.2,1.3-11.3,1.3-18.3c0-5.4-0.3-10.6-1-15.6c-0.7-5-1.9-9.5-3.8-13.4c-1.9-3.9-4.5-7.1-7.9-9.4
	c-3.4-2.3-7.7-3.5-13.1-3.5c-5.4,0-9.8,1.2-13.1,3.5c-3.4,2.3-6,5.5-7.9,9.4c-1.9,3.9-3.2,8.4-3.8,13.4
	C447.5,365.1,447.2,370.3,447.2,375.6"/>
<path fill="#1D1D1B" d="M67.3,419.7c-5.6,0-11-1.1-16.8-4.9c-1.9-1.3-3-1.9-4.6-1.9c-2.8,0-5.6,2.8-8.8,6.8h-0.3v-28h0.4l1.5,4.6
	c3.3,9.9,11.1,22.9,28.4,22.9c11.1,0,19.5-5,19.5-16.5c0-25.4-46.3-20.3-46.3-48.4c0-13.3,11-22.1,24.6-22.1c5.3,0,9.9,1.4,14.3,4.3
	c1.6,1.1,2.9,1.8,4.1,1.8c2.1,0,4.8-2.5,7.6-6h0.2v24.3H91l-1.4-4.4c-3.8-12.6-13.8-19.4-24.1-19.4s-16.3,5.4-16.3,13.8
	c0,25.9,46.9,20.8,46.9,50.3C96.1,410.4,83.8,419.7,67.3,419.7"/>
</svg>
